<svg xmlns="http://www.w3.org/2000/svg" width="1927.177" height="392.46" viewBox="0 0 1927.177 392.46">
  <g id="Group_1" data-name="Group 1" transform="translate(5.715 2.05)">
    <path id="Path_1" data-name="Path 1" d="M0,0S29.8,96.284,658.939,132.807c281.225,16.326,436.453,131.967,505.815,163.7,250.089,114.4,403.478,115.056,756.708,51.348-.494-7.35,0-347.851,0-347.851Z" fill="#d8f7ff"/>
    <path id="Path_2" data-name="Path 2" d="M1920,131.262s-101.849,267.454-374.087,183.362-390.678,81.309-691.681,0S490.844-24.466,242.033,31.963.98,2.47.98,2.47H1920Z" fill="#bcddef"/>
    <path id="Path_3" data-name="Path 3" d="M1920,259.805S1719.1,4.515,1452.8,74.523,985.376,284.114,684.19,150.516,363.359,264.373,197.606,197.19s-203.321,0-203.321,0V-2.05H1920Z" fill="#078ad0" opacity="0.183"/>
  </g>
</svg>
